<?xml version="1.0" encoding="utf-8"?>
<!-- Generator: Adobe Illustrator 25.4.0, SVG Export Plug-In . SVG Version: 6.00 Build 0)  -->
<svg version="1.1" id="Layer_1" xmlns="http://www.w3.org/2000/svg" xmlns:xlink="http://www.w3.org/1999/xlink" x="0px" y="0px"
	 viewBox="0 0 612 792" style="enable-background:new 0 0 612 792;" xml:space="preserve">
<style type="text/css">
	.st0{fill:#FFFFFF;}
	.st1{fill:url(#SVGID_1_);}
	.st2{fill:url(#SVGID_00000004526175373139529280000008203037600266169788_);}
	.st3{fill:url(#SVGID_00000022537909609965372280000012564594429113135781_);}
	.st4{fill:url(#SVGID_00000103253450993287630820000009972118141231995046_);}
</style>
<g>
	<g>
		<path class="st0" d="M238.21,386.16l2.42-5.13c2.47,1.81,5.41,3.37,10.11,3.37c2.56,0,5.7-1.19,5.7-3.61
			c0-2.37-2.76-2.99-5.46-3.65c-5.74-1.33-11.68-3.28-11.68-9.69c0-5.94,5.56-8.88,11.44-8.88c4.65,0,8.17,1.23,11.25,3.27
			l-2.42,5.13c-2.47-1.61-5.7-2.47-8.83-2.47c-1.62,0-4.65,0.62-4.65,2.95c0,1.99,2.23,2.7,5.27,3.42
			c5.46,1.28,12.01,3.32,12.01,9.92c0,6.65-6.46,9.54-12.63,9.54C243.38,390.33,239.92,387.53,238.21,386.16z"/>
		<path class="st0" d="M267.17,377.94c0-6.89,5.6-12.35,12.68-12.35c7.12,0,12.73,5.46,12.73,12.35c0,6.88-5.6,12.34-12.73,12.34
			C272.77,390.29,267.17,384.83,267.17,377.94z M286.07,377.94c0-3.71-2.66-6.46-6.22-6.46c-3.56,0-6.22,2.75-6.22,6.46
			c0,3.75,2.66,6.46,6.22,6.46C283.41,384.4,286.07,381.69,286.07,377.94z"/>
		<path class="st0" d="M296.37,380.27v-14.2h6.36v13.34c0,3.32,1.42,4.84,4.37,4.84c3.32,0,4.94-2.8,4.94-6.03v-12.16h6.36v23.74
			h-5.98v-3.33c-1.42,2.33-4.65,3.8-7.41,3.8C298.45,390.29,296.37,386.44,296.37,380.27z"/>
		<path class="st0" d="M324.85,382.17V371.2h-3.47v-5.13h3.47v-4.56l6.36-1.42v5.98h6.55v5.13h-6.55v10.87c0,2.04,1,2.71,2.14,2.71
			c1.52,0,2.85-0.86,3.04-1l1.8,4.7c-1.42,0.95-3.51,1.8-6.03,1.8C327.41,390.29,324.85,387.53,324.85,382.17z"/>
		<path class="st0" d="M341.32,358.57h6.36v10.49c1.85-2.47,4.46-3.47,7.31-3.47c6.17,0,8.45,3.9,8.45,10.54v13.68h-6.36v-12.87
			c0-3.47-1.04-5.32-4.18-5.32c-3.37,0-5.22,2.7-5.22,6.12v12.06h-6.36V358.57z"/>
		<path class="st0" d="M238.21,427.06l2.42-5.13c2.47,1.8,5.41,3.37,10.11,3.37c2.56,0,5.7-1.19,5.7-3.61
			c0-2.38-2.76-2.99-5.46-3.66c-5.74-1.33-11.68-3.28-11.68-9.69c0-5.93,5.56-8.88,11.44-8.88c4.65,0,8.17,1.23,11.25,3.28
			l-2.42,5.13c-2.47-1.62-5.7-2.47-8.83-2.47c-1.62,0-4.65,0.62-4.65,2.94c0,2,2.23,2.71,5.27,3.42c5.46,1.28,12.01,3.33,12.01,9.92
			c0,6.65-6.46,9.54-12.63,9.54C243.38,431.24,239.92,428.44,238.21,427.06z"/>
		<path class="st0" d="M267.17,418.85c0-6.84,4.18-12.35,10.73-12.35c2.75,0,5.7,1.09,7.41,3.37v-2.89h6.22v23.74h-6.22v-2.85
			c-1.66,2.28-4.65,3.32-7.41,3.32C271.35,431.19,267.17,425.68,267.17,418.85z M285.16,418.85c0-3.71-2.38-6.46-5.65-6.46
			c-3.42,0-5.89,2.75-5.89,6.46c0,3.75,2.47,6.46,5.89,6.46C282.79,425.31,285.16,422.65,285.16,418.85z"/>
		<path class="st0" d="M295.13,427.96l2.28-4.89c1.61,1.23,3.85,2.52,7.41,2.52c1.47,0,3.89-0.57,3.89-2s-2.04-1.76-4.08-2.33
			c-4.7-1.23-8.55-2.8-8.55-7.36c0-4.84,4.75-7.41,9.21-7.41c3.9,0,6.36,0.95,8.83,2.38l-2.14,4.75c-2.33-1.14-4.51-1.66-6.6-1.66
			c-1.47,0-2.85,0.67-2.85,1.66c0,1.33,1.99,1.76,4.18,2.23c4.04,0.95,8.45,2.7,8.45,7.55c0,5.84-5.93,7.79-10.35,7.79
			C299.74,431.19,296.46,429.2,295.13,427.96z"/>
		<path class="st0" d="M318.96,399.47h6.36v17.38l8.17-9.88h7.74l-9.26,10.35l10.83,13.39h-7.65l-7.12-9.07l-2.71,3.23v5.84h-6.36
			V399.47z"/>
		<path class="st0" d="M342.99,418.85c0-6.84,4.18-12.35,10.73-12.35c2.75,0,5.7,1.09,7.41,3.37v-2.89h6.22v23.74h-6.22v-2.85
			c-1.66,2.28-4.65,3.32-7.41,3.32C347.17,431.19,342.99,425.68,342.99,418.85z M360.98,418.85c0-3.71-2.38-6.46-5.65-6.46
			c-3.42,0-5.89,2.75-5.89,6.46c0,3.75,2.47,6.46,5.89,6.46C358.61,425.31,360.98,422.65,360.98,418.85z"/>
		<path class="st0" d="M373.8,423.07V412.1h-3.47v-5.13h3.47v-4.56l6.36-1.43v5.98h6.55v5.13h-6.55v10.87c0,2.04,1,2.71,2.14,2.71
			c1.52,0,2.85-0.85,3.04-1l1.8,4.7c-1.42,0.95-3.51,1.8-6.03,1.8C376.36,431.19,373.8,428.44,373.8,423.07z"/>
		<path class="st0" d="M389.42,418.85c0-6.89,5.6-12.35,12.68-12.35c3.28,0,6.12,1.09,8.5,3.04l-3.85,4.46
			c-1.09-1-2.61-1.61-4.51-1.61c-3.7,0-6.36,2.71-6.36,6.46c0,3.71,2.52,6.46,6.55,6.46c1.99,0,3.94-0.76,5.18-1.95l3.37,4.75
			c-2.28,1.95-5.46,3.09-8.88,3.09C395.02,431.19,389.42,425.73,389.42,418.85z"/>
		<path class="st0" d="M414.25,399.47h6.36v10.49c1.85-2.47,4.46-3.47,7.31-3.47c6.17,0,8.45,3.9,8.45,10.54v13.68h-6.36v-12.87
			c0-3.47-1.05-5.32-4.18-5.32c-3.37,0-5.22,2.71-5.22,6.13v12.06h-6.36V399.47z"/>
		<path class="st0" d="M440.22,418.85c0-6.84,5.32-12.35,12.3-12.35c6.46,0,11.54,5.51,11.54,12.25c0,1.14-0.14,2.28-0.14,2.28
			h-17.24c0.76,3.27,3.47,4.84,6.6,4.84c2.28,0,4.65-0.66,6.41-1.85l2.38,4.56c-2.66,1.75-5.75,2.61-8.83,2.61
			C446.3,431.19,440.22,426.68,440.22,418.85z M458.07,416.81c-0.47-2.99-2.85-4.99-5.75-4.99c-2.75,0-5.13,2-5.74,4.99H458.07z"/>
		<path class="st0" d="M465.43,406.98h6.22l3.61,12.68c0.47,1.66,0.76,3.75,0.76,3.75s0.19-2.09,0.57-3.71l2.9-12.72h6.27l2.9,12.72
			c0.38,1.62,0.62,3.71,0.62,3.71s0.24-2.09,0.71-3.75l3.66-12.68h6.17l-7.6,23.79h-5.75l-3.18-12.82
			c-0.38-1.62-0.62-3.61-0.62-3.61s-0.28,1.99-0.66,3.61l-3.18,12.82h-5.79L465.43,406.98z"/>
		<path class="st0" d="M501.13,418.85c0-6.84,4.18-12.35,10.73-12.35c2.76,0,5.7,1.09,7.41,3.37v-2.89h6.22v23.74h-6.22v-2.85
			c-1.66,2.28-4.65,3.32-7.41,3.32C505.31,431.19,501.13,425.68,501.13,418.85z M519.13,418.85c0-3.71-2.37-6.46-5.65-6.46
			c-3.42,0-5.89,2.75-5.89,6.46c0,3.75,2.47,6.46,5.89,6.46C516.75,425.31,519.13,422.65,519.13,418.85z"/>
		<path class="st0" d="M530.33,406.98h6.22v3.18c1.9-2.61,4.61-3.66,7.5-3.66c6.27,0,8.45,4.04,8.45,10.54v13.68h-6.36v-12.87
			c0-3.47-0.9-5.32-4.13-5.32c-3.18,0-5.32,2.57-5.32,6.17v12.01h-6.36V406.98z"/>
		<path class="st0" d="M238.3,456.19c0-8.74,6.74-15.81,16.24-15.81c4.23,0,8.02,1.43,10.78,3.9l-4.08,4.46
			c-2.09-1.8-4.23-2.32-6.31-2.32c-5.6,0-9.69,4.37-9.69,9.78c0,5.51,3.99,9.92,9.45,9.92c2.85,0,5.46-1.09,7.36-3.18l4.13,4.65
			c-2.94,2.85-6.93,4.56-11.63,4.56C245.05,472.14,238.3,465.07,238.3,456.19z"/>
		<path class="st0" d="M268.54,459.75c0-6.88,5.6-12.34,12.68-12.34c7.12,0,12.73,5.46,12.73,12.34c0,6.89-5.6,12.35-12.73,12.35
			C274.15,472.1,268.54,466.64,268.54,459.75z M287.44,459.75c0-3.7-2.66-6.46-6.22-6.46c-3.56,0-6.22,2.76-6.22,6.46
			c0,3.75,2.66,6.46,6.22,6.46C284.78,466.21,287.44,463.5,287.44,459.75z"/>
		<path class="st0" d="M298.07,447.88h6.22v3.18c1.38-2.13,4.18-3.65,7.03-3.65c3.75,0,6.08,1.56,7.31,4.22
			c1.71-2.85,4.99-4.22,7.69-4.22c6.69,0,8.78,4.6,8.78,10.68v13.53h-6.36V458.9c0-3.13-0.76-5.46-4.13-5.46
			c-3.13,0-4.84,2.51-4.84,5.65v12.54h-6.36V458.9c0-3.13-0.71-5.46-4.13-5.46c-3.23,0-4.84,2.75-4.84,5.89v12.3h-6.36V447.88z"/>
		<path class="st0" d="M339.62,447.88h6.22v3.18c1.38-2.13,4.18-3.65,7.03-3.65c3.75,0,6.08,1.56,7.31,4.22
			c1.71-2.85,4.99-4.22,7.69-4.22c6.7,0,8.79,4.6,8.79,10.68v13.53h-6.36V458.9c0-3.13-0.76-5.46-4.13-5.46
			c-3.13,0-4.84,2.51-4.84,5.65v12.54h-6.36V458.9c0-3.13-0.71-5.46-4.13-5.46c-3.23,0-4.84,2.75-4.84,5.89v12.3h-6.36V447.88z"/>
		<path class="st0" d="M380.83,462.08v-14.2h6.36v13.34c0,3.32,1.42,4.84,4.37,4.84c3.32,0,4.94-2.8,4.94-6.03v-12.16h6.36v23.74
			h-5.98v-3.32c-1.42,2.32-4.65,3.8-7.41,3.8C382.92,472.1,380.83,468.25,380.83,462.08z"/>
		<path class="st0" d="M407.7,447.88h6.22v3.18c1.9-2.61,4.61-3.65,7.5-3.65c6.27,0,8.45,4.03,8.45,10.54v13.68h-6.36v-12.87
			c0-3.47-0.9-5.32-4.13-5.32c-3.18,0-5.32,2.56-5.32,6.17v12.01h-6.36V447.88z"/>
		<path class="st0" d="M433.76,441.23c0-2.09,1.71-3.8,3.75-3.8c2.09,0,3.8,1.71,3.8,3.8c0,2.04-1.71,3.75-3.8,3.75
			C435.47,444.98,433.76,443.28,433.76,441.23z M434.38,447.88h6.36v23.74h-6.36V447.88z"/>
		<path class="st0" d="M447.2,463.98v-10.97h-3.47v-5.13h3.47v-4.56l6.36-1.43v5.98h6.55v5.13h-6.55v10.87c0,2.04,1,2.7,2.14,2.7
			c1.52,0,2.85-0.85,3.04-1l1.8,4.7c-1.42,0.95-3.51,1.81-6.03,1.81C449.76,472.1,447.2,469.34,447.2,463.98z"/>
		<path class="st0" d="M466.38,472.81c2.94,0,4.03-1,4.89-2.85l0.52-1.05l-9.92-21.03h6.46l4.8,11.11c0.71,1.66,1.57,4.04,1.57,4.04
			s1-2.8,1.52-4.18l4.32-10.97h6.36l-10.54,24.41c-2.57,5.84-7.03,6.32-9.97,6.32V472.81z"/>
		<path class="st0" d="M239.39,481.76h23.03v5.7h-16.38v6.26H260v5.65h-13.96v13.15h-6.65V481.76z"/>
		<path class="st0" d="M263.7,500.66c0-6.89,5.6-12.35,12.68-12.35c7.12,0,12.73,5.46,12.73,12.35c0,6.89-5.6,12.35-12.73,12.35
			C269.31,513,263.7,507.54,263.7,500.66z M282.6,500.66c0-3.7-2.66-6.46-6.22-6.46c-3.56,0-6.22,2.76-6.22,6.46
			c0,3.75,2.66,6.46,6.22,6.46C279.94,507.12,282.6,504.41,282.6,500.66z"/>
		<path class="st0" d="M292.9,502.99v-14.2h6.36v13.34c0,3.33,1.42,4.84,4.37,4.84c3.32,0,4.94-2.8,4.94-6.03v-12.16h6.36v23.74
			h-5.98v-3.33c-1.42,2.33-4.65,3.8-7.41,3.8C294.99,513,292.9,509.16,292.9,502.99z"/>
		<path class="st0" d="M319.77,488.79h6.22v3.18c1.9-2.61,4.61-3.66,7.5-3.66c6.27,0,8.45,4.04,8.45,10.54v13.68h-6.36v-12.87
			c0-3.46-0.9-5.32-4.13-5.32c-3.18,0-5.32,2.57-5.32,6.17v12.01h-6.36V488.79z"/>
		<path class="st0" d="M345.74,500.66c0-6.84,4.27-12.35,10.83-12.35c2.75,0,5.46,1.09,7.17,3.13v-10.16h6.36v31.25h-6.03v-2.85
			c-1.71,2.28-4.75,3.33-7.6,3.33C349.92,513,345.74,507.5,345.74,500.66z M363.74,500.66c0-3.7-2.37-6.46-5.65-6.46
			c-3.42,0-5.89,2.76-5.89,6.46c0,3.75,2.47,6.46,5.89,6.46C361.36,507.12,363.74,504.46,363.74,500.66z"/>
		<path class="st0" d="M374.23,500.66c0-6.84,4.18-12.35,10.73-12.35c2.75,0,5.7,1.09,7.41,3.37v-2.9h6.22v23.74h-6.22v-2.85
			c-1.66,2.28-4.65,3.33-7.41,3.33C378.41,513,374.23,507.5,374.23,500.66z M392.22,500.66c0-3.7-2.38-6.46-5.65-6.46
			c-3.42,0-5.89,2.76-5.89,6.46c0,3.75,2.47,6.46,5.89,6.46C389.85,507.12,392.22,504.46,392.22,500.66z"/>
		<path class="st0" d="M405.04,504.88v-10.97h-3.47v-5.13h3.47v-4.56l6.36-1.42v5.98h6.55v5.13h-6.55v10.87c0,2.04,1,2.71,2.14,2.71
			c1.52,0,2.85-0.86,3.04-1l1.8,4.7c-1.42,0.95-3.51,1.81-6.03,1.81C407.6,513,405.04,510.25,405.04,504.88z"/>
		<path class="st0" d="M420.9,482.14c0-2.09,1.71-3.8,3.75-3.8c2.09,0,3.8,1.71,3.8,3.8c0,2.04-1.71,3.75-3.8,3.75
			C422.6,485.89,420.9,484.18,420.9,482.14z M421.51,488.79h6.36v23.74h-6.36V488.79z"/>
		<path class="st0" d="M432,500.66c0-6.89,5.6-12.35,12.68-12.35c7.12,0,12.73,5.46,12.73,12.35c0,6.89-5.6,12.35-12.73,12.35
			C437.61,513,432,507.54,432,500.66z M450.9,500.66c0-3.7-2.66-6.46-6.22-6.46c-3.56,0-6.22,2.76-6.22,6.46
			c0,3.75,2.66,6.46,6.22,6.46C448.24,507.12,450.9,504.41,450.9,500.66z"/>
		<path class="st0" d="M461.54,488.79h6.22v3.18c1.9-2.61,4.6-3.66,7.5-3.66c6.27,0,8.45,4.04,8.45,10.54v13.68h-6.36v-12.87
			c0-3.46-0.9-5.32-4.13-5.32c-3.18,0-5.32,2.57-5.32,6.17v12.01h-6.36V488.79z"/>
	</g>
</g>
<g>
	<g>
		<g>
			<linearGradient id="SVGID_1_" gradientUnits="userSpaceOnUse" x1="117.9007" y1="335.0866" x2="117.9007" y2="253.7344">
				<stop  offset="1.331947e-07" style="stop-color:#7AC142"/>
				<stop  offset="0.2508" style="stop-color:#7FC341"/>
				<stop  offset="0.7631" style="stop-color:#C1D72E"/>
			</linearGradient>
			<path class="st1" d="M140.86,295.61c-1.13-4.11-2.95-9.35-6.84-17.17c-2.78-5.59-5.85-9.57-9.83-13.66
				c-5.91-6.08-11.14-9.09-15.84-10.49c-2.39-0.71-4.31-0.81-5.78,0.01c-4.11,2.28-7.16,6.25-9.08,11.82
				c-1.44,4.19-1.83,8.12-1.16,11.66l0.19,0.99c0,0,5.01-3.76,11.22-4.28c2.49-0.21,4.98-0.38,7.57,0.51
				c7.9,2.72,14.86,10.15,20.65,21.99l3.22,8.92c2.34,8.57,3.57,18.3,3.63,28.91l1.61,0.25c3.22-10.04,4.14-19.97,2.7-29.59
				C143.06,305.19,141.53,298.05,140.86,295.61z"/>
			
				<linearGradient id="SVGID_00000087376140652455117680000013259130468854432140_" gradientUnits="userSpaceOnUse" x1="181.7103" y1="339.0426" x2="181.7103" y2="290.5907">
				<stop  offset="1.331947e-07" style="stop-color:#7AC142"/>
				<stop  offset="0.2508" style="stop-color:#7FC341"/>
				<stop  offset="0.7631" style="stop-color:#C1D72E"/>
			</linearGradient>
			<path style="fill:url(#SVGID_00000087376140652455117680000013259130468854432140_);" d="M210.98,295.67
				c-1.06-2.52-3.03-4.06-5.88-4.5c-5.74-0.89-7.92-0.77-12.78,0.51c-4.01,1.06-9.86,3.33-14.58,6.94
				c-4.52,3.46-8.05,6.62-10.89,9.27c-2.76,2.57-5.78,6.53-5.92,6.71c-4.42,6.14-7.57,14.18-9.37,23.9l1.54,0.54
				c4.64-8.64,9.42-15.56,14.17-20.55l6.06-5.51c8.27-5.77,15.58-8.19,21.72-7.2c2.67,0.43,5.52,1.59,8.17,4.34
				c3.2,3.33,3.72,5.59,3.72,5.59l0.63-0.8c2-2.53,3.31-5.65,3.9-9.27C212.14,301.41,211.98,298.05,210.98,295.67z"/>
		</g>
	</g>
	<g>
		<g>
			<g>
				
					<linearGradient id="SVGID_00000014627616769023727880000003295106816186496423_" gradientUnits="userSpaceOnUse" x1="98.5377" y1="539.0869" x2="98.5377" y2="326.359">
					<stop  offset="0.3709" style="stop-color:#37A86B"/>
					<stop  offset="1" style="stop-color:#7AC142"/>
				</linearGradient>
				<path style="fill:url(#SVGID_00000014627616769023727880000003295106816186496423_);" d="M136.75,353.4
					c0.3,4.99-1.07,9.46-4.13,13.42c-3.06,3.96-7.01,6.01-11.86,6.17c-3.94,0.12-8.53-1.4-13.78-4.57
					c4.96-1.37,7.32-5.76,7.09-13.18c-0.32-5.29-1.97-8.91-5.42-12.16c-3.47-3.27-7.01-4.66-13.48-3.96
					c-3.67,0.4-7.53,2.97-9.67,6.05c-2.94,4.23-4.16,10.03-4.05,13.36c0.44,9.53,4.8,20.46,13.06,32.78
					c7.6,10.53,15.27,21.04,23.03,31.56c8.11,12.47,11.29,23.86,11.92,34.14c0.51,11.5-0.29,21.11-2.4,28.83
					c-2.11,7.71-4.87,15-10.05,22.28c-4.08,5.73-10.62,13.66-16.69,18.7c-5.1,4.24-7.36,5.63-11.15,8.13
					c-3.79,2.49-8.77,4.23-10.74,4.15c9.27-6.05,18.65-18.9,23.33-29.82c5.8-13.52,8.96-25.89,8.44-37.54
					c-0.65-11.04-5.29-23.32-13.93-36.84c-7.97-11.42-15.86-22.77-23.67-34.04c-8.33-13.23-12.43-25.22-12.31-35.98
					c0.18-13.49,4.95-23.48,14.3-29.99c7.86-5.55,18.16-9.57,32.02-8.27c6.52,0.61,12.33,3.14,19.26,9.06
					C132.78,341.59,136.42,347.5,136.75,353.4z"/>
			</g>
			<g>
				
					<linearGradient id="SVGID_00000123427171380489360300000006705950020972260246_" gradientUnits="userSpaceOnUse" x1="171.0006" y1="519.7593" x2="171.0006" y2="351.8141">
					<stop  offset="0.3709" style="stop-color:#37A86B"/>
					<stop  offset="1" style="stop-color:#7AC142"/>
				</linearGradient>
				<path style="fill:url(#SVGID_00000123427171380489360300000006705950020972260246_);" d="M152.04,357.55
					c4.69-3.59,10.45-5.69,16.31-5.73c10.58-0.08,18.7,3.75,24.47,8.61c6.86,5.71,9.92,13.84,9.16,24.39
					c-0.63,8.42-4.64,17.52-12.03,27.3c-6.86,8.29-13.79,16.62-20.78,25.01c-7.66,9.99-12.12,19.27-13.37,27.86
					c-1.18,9.07,0.18,19.04,4.08,29.9c3.98,11.23,9.39,19.52,16.23,24.87c-1.55-0.07-5.18-2.15-7.9-4.07
					c-3.8-2.67-4.45-3.16-8.39-6.99c-3.93-3.83-9.52-11.88-11.79-15.74c-3.56-6.04-6.16-12-7.29-18.17
					c-1.13-6.17-1.11-13.74,0.06-22.69c1.18-7.99,5.35-16.6,12.53-25.8c6.76-7.7,13.47-15.4,20.11-23.12
					c7.29-9.07,11.42-17.32,12.41-24.74c0.3-2.59,0-6.29-1.78-9.49c-1.87-3.35-3.72-5.65-6.92-6.6c-3.98-1.19-7.59-0.11-10.51,1.7
					c-3.07,1.9-5.46,5.52-6.07,9.63c-0.68,5.78,0.87,9.37,4.66,10.77c-4.31,2.13-8,3.01-11.07,2.65c-3.77-0.44-6.73-2.31-8.85-5.61
					c-2.12-3.3-2.9-6.89-2.32-10.77C143.65,366.14,146.37,361.89,152.04,357.55z"/>
			</g>
		</g>
	</g>
</g>
</svg>
